<?xml version="1.0" encoding="UTF-8"?>
<svg id="Layer_1" data-name="Layer 1" xmlns="http://www.w3.org/2000/svg" viewBox="0 0 500 505.3366">
  <defs>
    <style>
      .cls-1 {
        fill: #1d3154;
      }

      .cls-2 {
        fill: #f24957;
      }
    </style>
  </defs>
  <path class="cls-1" d="M204.5446,348.8975h90.9132c26.5712,0,48.1061-21.5349,48.1061-48.1061s-21.5349-48.1061-48.1061-48.1061h-90.9132c-26.5712,0-48.1061,21.5349-48.1061,48.1061s21.5349,48.1061,48.1061,48.1061Z"/>
  <circle class="cls-2" cx="451.8907" cy="300.7906" r="48.1093"/>
  <path class="cls-1" d="M307.4623,409.1241l-35.0188,96.2125h-67.8975C91.5785,505.3366,0,413.7586,0,300.7904S91.5785,96.2442,204.5462,96.2442l.0064.0062h114.3956L353.9808,0h102.3906l-35.0325,96.2503h.0008l-35.0188,96.2125h-.0003l-.0019.0051-181.7723-.0113c-59.7354,0-108.3337,48.5988-108.3337,108.3337s48.5983,108.3337,108.3337,108.3337h102.9161-.0002Z"/>
</svg>