<?xml version="1.0" encoding="UTF-8"?>
<svg id="Layer_1" data-name="Layer 1" xmlns="http://www.w3.org/2000/svg" viewBox="0 0 700 188.3069">
  <defs>
    <style>
      .cls-1 {
        fill: #1d3154;
      }

      .cls-2 {
        fill: #f24957;
      }
    </style>
  </defs>
  <g>
    <path class="cls-1" d="M76.2208,130.012h33.8776c9.9014,0,17.9261-8.0247,17.9261-17.9261,0-9.9014-8.0247-17.9261-17.9261-17.9261h-33.8776c-9.9014,0-17.9261,8.0247-17.9261,17.9261,0,9.9014,8.0247,17.9261,17.9261,17.9261Z"/>
    <circle class="cls-2" cx="168.391" cy="112.0856" r="17.9273"/>
    <path class="cls-1" d="M114.5717,152.4546l-13.0493,35.8523h-25.3011C34.1255,188.3069,0,154.1816,0,112.0855S34.1255,35.8641,76.2214,35.8641l.0024.0023h42.628L131.9062,0h38.1545l-13.0544,35.8664h.0003l-13.0493,35.8523h-.0001l-.0007.0019-67.735-.0042c-22.2596,0-40.3691,18.1097-40.3691,40.3691,0,22.2595,18.1095,40.3691,40.3691,40.3691h38.3503Z"/>
  </g>
  <g>
    <path class="cls-1" d="M283.9338,134.808c-5.1258,5.6533-12.3546,8.5429-20.6361,8.5429-17.0882,0-31.0206-13.2742-31.0206-32.5962,0-19.0582,14.1962-33.1237,31.6789-33.1237,7.754,0,14.5883,2.2338,19.7141,6.9674v-36.5409l14.9851-1.9723v95.9515h-14.7214v-7.2288ZM266.9786,130.8657c7.3595,0,13.1435-3.1557,16.6914-8.1508v-23.9225c-3.4172-5.2565-9.3319-8.6736-16.9551-8.6736-11.4349,0-19.4527,8.5429-19.4527,20.3723s8.4122,20.3746,19.7164,20.3746Z"/>
    <path class="cls-1" d="M314.1748,55.9447c0-4.995,4.0754-8.9397,9.0681-8.9397s9.0704,3.9447,9.0704,8.9397-4.0754,8.9374-9.0704,8.9374-9.0681-3.9447-9.0681-8.9374ZM315.7527,78.9452h14.9828v63.0916h-14.9828v-63.0916Z"/>
    <path class="cls-1" d="M369.1203,118.378l-12.4876-4.4699c-8.2815-3.0227-13.1435-9.0681-13.1435-16.2969,0-11.3042,8.8067-19.8495,22.8698-19.8495,8.4122,0,14.8544,1.9723,19.7164,4.995v14.1962c-7.6233-5.5202-13.538-7.2288-19.7164-7.2288s-9.2012,2.6282-9.2012,6.0454c0,2.4975,1.9723,4.7336,5.9147,6.1785l14.0655,5.1258c9.5933,3.4172,13.538,9.4649,13.538,16.9551,0,9.9901-7.887,19.322-24.184,19.322-7.887,0-15.1158-1.7086-22.2139-5.7816v-14.0655c8.1485,5.3895,15.2466,8.1508,21.9502,8.1508,6.4399,0,10.2515-2.4975,10.2515-6.3092,0-3.025-1.8393-4.995-7.3595-6.9674Z"/>
    <path class="cls-1" d="M475.1996,164.6452c-11.4349,0-20.2416-6.1785-27.6035-11.8294l-7.3595-5.6533c-4.7313-3.6786-9.8594-5.1258-14.1962-5.1258-6.8343,0-13.1435,2.6306-20.8998,6.7036v-14.8521c2.4975-1.4472,6.8367-3.1557,11.4373-4.0754-9.8594-8.5429-15.9048-20.6361-15.9048-33.7796,0-26.5508,21.425-47.3199,48.3702-47.3199,27.0759,0,47.8451,20.7691,47.8451,47.3199,0,24.0532-18.0078,42.5863-41.5359,45.609l6.4399,4.3392c4.4699,3.0227,9.0704,5.3872,14.46,5.3872,4.7313,0,8.0177-1.0504,13.538-3.4172v13.8017c-5.2588,1.9723-9.0704,2.892-14.5907,2.892ZM416.5779,96.0334c0,17.8748,13.4073,33.2544,32.2017,33.2544,18.6661,0,32.204-15.3796,32.204-33.2544,0-17.7441-13.538-33.2544-32.204-33.2544-18.7944,0-32.2017,14.9828-32.2017,33.2544Z"/>
    <path class="cls-1" d="M540.4083,77.6311c18.7944,0,33.1237,13.671,33.1237,32.5985,0,19.1889-15.2489,33.1213-33.6489,33.1213-18.1409,0-33.1237-13.6687-33.1237-32.5962,0-19.1912,15.2466-33.1237,33.6489-33.1237ZM540.1446,90.3801c-10.3846,0-18.4023,8.2815-18.4023,20.1109s8.0177,20.1109,18.4023,20.1109c10.2538,0,18.4023-8.2815,18.4023-20.1109s-8.1485-20.1109-18.4023-20.1109Z"/>
    <path class="cls-2" d="M579.9812,133.6246c0-5.1258,4.2061-9.0681,9.2012-9.0681,5.1258,0,9.2012,3.9424,9.2012,9.0681,0,4.995-4.0754,9.0704-9.2012,9.0704-4.995,0-9.2012-4.0754-9.2012-9.0704Z"/>
    <path class="cls-1" d="M649.5174,131.916c-5.5202,7.3619-13.6687,11.1735-22.6061,11.1735-11.9624,0-18.7968-6.7036-18.7968-16.8244,0-9.7263,6.1785-16.1685,22.3447-20.2416l18.533-4.7336c-.6559-7.8847-5.1258-10.7767-13.2742-10.9097-7.0981-.1307-14.0655,2.4975-21.5581,7.887v-13.8017c6.8367-4.3368,14.3269-6.8343,23.3973-6.8343,17.6134,0,26.287,8.0177,26.287,24.1863v26.0256c0,2.6282,1.8416,3.9424,4.6006,3.9424,2.1031,0,3.1557-.2638,4.995-.9196v10.2515c-2.7589,1.1834-5.9147,1.5779-9.0681,1.5779-9.3342,0-14.0655-4.0754-14.8544-10.779ZM631.3788,131.5215c7.0981,0,13.9324-4.3368,17.7441-10.1208v-9.5956l-13.9324,3.6809c-9.7263,2.6282-12.3546,5.5202-12.3546,9.8594,0,3.4172,2.6282,6.1761,8.5429,6.1761Z"/>
    <path class="cls-1" d="M681.8615,55.9447c0-4.995,4.0731-8.9397,9.0681-8.9397s9.0704,3.9447,9.0704,8.9397-4.0754,8.9374-9.0704,8.9374-9.0681-3.9447-9.0681-8.9374ZM683.437,78.9452h14.9851v63.0916h-14.9851v-63.0916Z"/>
  </g>
</svg>